<svg width="1365" height="1252" viewBox="0 0 1365 1252" fill="none" xmlns="http://www.w3.org/2000/svg">
<g filter="url(#filter0_f_27_35)">
<path d="M987.493 612.34C1011.78 772.357 590.28 876 441.932 876C293.585 876 441.932 549.408 441.932 434.209C441.932 319.01 535.698 410.358 684.046 410.358C832.393 410.358 987.493 497.141 987.493 612.34Z" fill="#707C5B"/>
</g>
<g filter="url(#filter1_f_27_35)">
<path d="M791.741 614.508C791.741 681.31 700.424 782.765 614.441 782.765C528.458 782.765 541.503 606.651 541.503 539.85C541.503 473.048 595.85 526.019 681.833 526.019C767.816 526.019 791.741 547.707 791.741 614.508Z" fill="#90AF58"/>
</g>
<defs>
<filter id="filter0_f_27_35" x="-3.8147e-06" y="0" width="1364.5" height="1252" filterUnits="userSpaceOnUse" color-interpolation-filters="sRGB">
<feFlood flood-opacity="0" result="BackgroundImageFix"/>
<feBlend mode="normal" in="SourceGraphic" in2="BackgroundImageFix" result="shape"/>
<feGaussianBlur stdDeviation="188" result="effect1_foregroundBlur_27_35"/>
</filter>
<filter id="filter1_f_27_35" x="164.796" y="130.095" width="1002.94" height="1028.67" filterUnits="userSpaceOnUse" color-interpolation-filters="sRGB">
<feFlood flood-opacity="0" result="BackgroundImageFix"/>
<feBlend mode="normal" in="SourceGraphic" in2="BackgroundImageFix" result="shape"/>
<feGaussianBlur stdDeviation="188" result="effect1_foregroundBlur_27_35"/>
</filter>
</defs>
</svg>
